# xmcd CD database file
#
# Track frame offsets:
#	150
#	12190
#	28267
#	44475
#	58497
#	72085
#	86290
#	102997
#	113870
#	127915
#	143262
#	157170
#
# Disc length: 2277 seconds
#
# Revision: 0
# Processed by: cddbd v1.5.2PL0 Copyright (c) Steve Scherf et al.
# Submitted via: CDex 1.40Beta9
#
DISCID=9f08e30c
DTITLE=Varios - Cheiro de Terra
DYEAR=1900
DGENRE=Country
TTITLE0=Pingo D'agua
TTITLE1=Meu cavalo zaino
TTITLE2=Joao de Barro
TTITLE3=O menino da porteira
TTITLE4=Tristeza do Jeca
TTITLE5=Couro de boi
TTITLE6=Chitaozinho e Chororo
TTITLE7=Mourao da porteira
TTITLE8=Cavalo preto
TTITLE9=Lembranca
TTITLE10=Bom Jesus da porteira
TTITLE11=A moda da mula preta
EXTD=ID3G: 2
EXTT0=
EXTT1=
EXTT2=
EXTT3=
EXTT4=
EXTT5=
EXTT6=
EXTT7=
EXTT8=
EXTT9=
EXTT10=
EXTT11=
PLAYORDER=
